<svg width="17" height="17" viewBox="0 0 17 17" fill="none" xmlns="http://www.w3.org/2000/svg">
<path d="M11.3283 8.49996L12.7426 9.91418L15.571 7.08575C17.1331 5.52365 17.1331 2.99099 15.571 1.4289C14.0089 -0.1332 11.4762 -0.1332 9.91413 1.4289L7.08571 4.25732L8.49992 5.67154L11.3283 2.84311C12.1094 2.06206 13.3757 2.06206 14.1568 2.84311C14.9378 3.62416 14.9378 4.89049 14.1568 5.67154L11.3283 8.49996Z" fill="#CCCCCC"/>
<path d="M8.49996 11.3285L9.91418 12.7427L7.08575 15.5711C5.52365 17.1332 2.99099 17.1332 1.4289 15.5711C-0.1332 14.009 -0.1332 11.4764 1.4289 9.91425L4.25732 7.08583L5.67154 8.50004L2.84311 11.3285C2.06206 12.1095 2.06206 13.3758 2.84311 14.1569C3.62416 14.9379 4.89049 14.9379 5.67154 14.1569L8.49996 11.3285Z" fill="#CCCCCC"/>
<path d="M11.3284 7.08568C11.7189 6.69516 11.7189 6.06199 11.3284 5.67147C10.9379 5.28094 10.3047 5.28094 9.91418 5.67147L5.67154 9.91411C5.28101 10.3046 5.28101 10.9378 5.67154 11.3283C6.06206 11.7188 6.69522 11.7188 7.08575 11.3283L11.3284 7.08568Z" fill="#CCCCCC"/>
</svg>
